<svg xmlns="http://www.w3.org/2000/svg" viewBox="0 0 20 24" width="20" height="24">
	<style>
		tspan { white-space:pre }
		.shp0 { fill: #c5c5c5 } 
	</style>
	<g id="Section 7 tarifs">
		<g id="01">
			<path id="fa-apple" class="shp0" d="M19.8 17.77C18.98 17.52 18.24 16.94 17.6 16.02C16.96 15.1 16.64 14.05 16.64 12.91C16.64 11.85 16.94 10.88 17.54 10.02C17.88 9.53 18.41 8.99 19.13 8.37C18.66 7.79 18.17 7.31 17.68 6.98C16.82 6.38 15.83 6.07 14.71 6.07C14.03 6.07 13.22 6.24 12.3 6.55C11.38 6.87 10.71 7.02 10.3 7.02C9.98 7.02 9.34 6.88 8.38 6.6C7.4 6.32 6.6 6.18 5.91 6.18C4.31 6.18 3 6.85 1.95 8.19C0.9 9.54 0.38 11.27 0.38 13.41C0.38 15.7 1.07 18.02 2.43 20.42C3.81 22.82 5.19 24.04 6.62 24.04C7.08 24.04 7.7 23.88 8.46 23.56C9.22 23.25 9.89 23.1 10.44 23.1C11.02 23.1 11.73 23.24 12.55 23.55C13.39 23.84 14.03 23.99 14.5 23.99C15.69 23.99 16.89 23.09 18.09 21.26C18.9 20.05 19.45 18.87 19.8 17.77ZM14.56 1.41C14.56 1.32 14.54 1.23 14.54 1.14C14.53 1.05 14.5 0.95 14.47 0.83C12.86 1.2 11.69 1.89 10.99 2.89C10.29 3.9 9.93 5.1 9.9 6.48C10.56 6.42 11.03 6.34 11.35 6.24C11.85 6.07 12.36 5.74 12.86 5.24C13.44 4.65 13.88 4.01 14.15 3.31C14.42 2.63 14.56 1.99 14.56 1.41Z" />
		</g>
	</g>
</svg>