<svg xmlns="http://www.w3.org/2000/svg" viewBox="0 0 41 41" width="41" height="41">
	<style>
		tspan { white-space:pre }
		.shp0 { fill: #ffffff } 
	</style>
	<g id="Header">
		<g id="Logo">
			<path id="Shape 5" class="shp0" d="M20.5 0C9.2 0 0 9.2 0 20.5C0 31.8 9.2 41 20.5 41C31.8 41 41 31.8 41 20.5C41 9.2 31.8 0 20.5 0ZM20.5 37.83C10.94 37.83 3.17 30.06 3.17 20.5C3.17 10.94 10.94 3.17 20.5 3.17C30.06 3.17 37.83 10.94 37.83 20.5C37.83 30.06 30.06 37.83 20.5 37.83ZM20.5 12.61C16.15 12.61 12.61 16.15 12.61 20.5C12.61 24.85 16.15 28.39 20.5 28.39C24.85 28.39 28.39 24.85 28.39 20.5C28.39 16.15 24.85 12.61 20.5 12.61ZM20.5 25.22C17.9 25.22 15.78 23.1 15.78 20.5C15.78 17.9 17.9 15.78 20.5 15.78C23.1 15.78 25.22 17.9 25.22 20.5C25.22 23.1 23.1 25.22 20.5 25.22Z" />
		</g>
	</g>
</svg>